<?xml version="1.0" standalone="no"?>
<!DOCTYPE svg PUBLIC "-//W3C//DTD SVG 20010904//EN" "http://www.w3.org/TR/2001/REC-SVG-20010904/DTD/svg10.dtd">
<svg version="1.0" xmlns="http://www.w3.org/2000/svg"
 width="848.000000pt" height="217.000000pt" viewBox="0 0 848.000000 217.000000"
 preserveAspectRatio="xMidYMid meet">
<metadata>
Created by potrace 1.16, written by Peter Selinger 2001-2019
</metadata>
<g transform="translate(0.000000,217.000000) scale(0.100000,-0.100000)"
fill="#28262e" stroke="none">
<path d="M0 1085 l0 -1085 4240 0 4240 0 0 1085 0 1085 -4240 0 -4240 0 0
-1085z m1673 639 c70 -36 191 -109 250 -152 l48 -34 -101 -70 c-55 -38 -100
-72 -100 -76 1 -4 24 -25 51 -47 74 -59 158 -161 192 -233 32 -68 39 -151 17
-206 -35 -92 -160 -222 -305 -317 -75 -50 -217 -128 -276 -153 l-36 -15 -74
56 c-102 78 -236 139 -356 164 -54 12 -111 24 -127 27 -27 7 -24 10 83 87
l110 80 1 248 c0 269 -4 294 -57 349 -15 15 -25 29 -22 32 2 2 127 75 278 164
l275 160 48 -19 c27 -10 72 -31 101 -45z m2430 -3 c-20 -19 -44 -54 -55 -78
-23 -51 -40 -193 -36 -291 l3 -70 74 59 c73 58 74 59 100 43 75 -46 168 -190
210 -328 27 -89 37 -195 22 -225 -7 -12 -80 -110 -162 -217 l-150 -194 -189
95 c-105 52 -190 98 -190 102 0 3 12 36 27 72 l27 66 -3 365 c-3 399 -3 399
-63 434 -23 14 -27 22 -22 39 3 12 7 22 8 22 26 7 199 82 276 120 102 51 106
52 132 37 l27 -16 -36 -35z m1895 50 c75 -53 268 -136 401 -172 l82 -22 -97
-98 -96 -97 99 -98 c55 -55 121 -129 147 -166 l47 -67 -42 -73 c-121 -209
-300 -386-510 -502 -36 -20 -72 -36 -80 -36 -29 0 -219 101 -295 158 -203
150 -304 337 -304 563 l0 87 71 92 c139 180 300 321 462 406 45 24 84 44 85
44 2 0 16 -8 30 -19z m-2739 -503 l25 -19 57 57 c46 45 61 55 79 49 29 -9 193
-172 213 -211 l16 -31 -67 -91 c-37 -50 -69 -91 -72 -92 -3 0 -18 25 -34 55
-29 55 -109 138 -155 158 -31 15 -51 -11 -52 -67 0 -23 -4 -93 -8 -156 -5 -83
-4 -124 5 -147 10 -26 68 -80 127 -118 13 -8 4 -26 -56 -112 -40 -56 -75 -101
-79 -100 -4 1 -68 49 -141 106 l-134 104 23 41 c23 39 24 49 24 248 l0 206
-31 31 c-21 22 -28 35 -22 44 5 6 36 45 67 84 l58 73 66 -47 c37 -26 78 -55
91 -65z m3817 84 c56 -41 146 -142 187 -209 73 -119 100 -262 61 -320 -50 -78
-307 -393 -320 -393 -8 0 -96 41 -195 90 -150 76 -180 94 -174 108 4 9 17 40
29 67 19 45 21 69 21 245 l0 196 110 77 c61 42 135 97 165 122 30 24 60 44 66
45 6 0 29 -13 50 -28z m-4387 -69 c102 -48 188 -88 190 -90 3 -2 -5 -13 -16
-26 -11 -12 -26 -33 -33 -45 -13 -26 -27 -343 -17 -384 4 -13 25 -46 47 -71
l41 -47 -90 -92 -90 -93 -68 73 -68 73 -97 -71 c-54 -38 -103 -70 -109 -70
-20 0 -140 69 -189 108 -25 20 -46 36 -48 37 -1 1 5 19 14 41 23 55 21 391 -3
437 -15 29 -14 31 8 48 13 10 89 72 169 138 80 65 151 120 159 120 7 1 97 -38
200 -86z m2331 7 c95 -44 181 -85 191 -91 18 -9 18 -12 -13 -50 l-33 -41 -3
-192 -3 -192 44 -50 44 -49 -89 -94 -89 -94 -72 70 -72 70 -85 -63 c-47 -35
-91 -67 -99 -71 -7 -3 -39 6 -70 22 -63 30 -181 112 -181 124 0 5 7 25 15 44
22 52 21 372 0 424 -9 20 -12 40 -8 44 37 36 331 269 339 269 6 0 89 -36 184
-80z m-4616 -94 c96 -40 102 -167 10 -211 -40 -19 -67 -19 -103 -1 -87 46 -80
171 13 212 39 17 40 17 80 0z m7698 -12 c16 -8 33 -30 43 -57 15 -40 15 -47 1
-80 -32 -79 -129 -99 -188 -39 -61 60 -38 161 42 189 37 12 57 10 102 -13z"/>
<path d="M1340 1410 c0 -88 2 -160 5 -160 5 0 222 144 260 173 20 14 -85 79
-199 122 l-66 25 0 -160z"/>
<path d="M1378 1173 l-38 -15 0 -122 0 -121 -47 -28 -46 -29 79 -42 c106 -57
157 -89 232 -148 l63 -49 40 43 c22 24 52 68 67 98 23 46 27 68 27 135 0 67
-5 88 -27 131 -68 130 -230 198 -350 147z"/>
<path d="M4010 972 c0 -223 2 -230 74 -263 105 -48 175 7 156 122 -16 101 -48
181 -97 246 -24 31 -107 93 -125 93 -4 0 -8 -89 -8 -198z"/>
<path d="M5950 1394 l0 -136 61 54 c34 29 80 69 102 89 l41 36 -39 25 c-44 26
-137 68 -154 68 -7 0 -11 -46 -11 -136z"/>
<path d="M5652 1423 c-66 -102 -86 -214 -58 -323 17 -66 72 -164 86 -155 30
19 44 453 16 503 -13 24 -13 24 -44 -25z"/>
<path d="M5954 1129 c4 -46 9 -96 12 -110 4 -23 0 -27 -35 -37 -40 -12 -181
-100 -181 -113 0 -14 139 -110 206 -141 59 -28 80 -33 144 -33 124 1 195 53
206 152 9 69 -11 143 -52 197 -43 56 -141 122 -213 142 -31 9 -64 18 -75 21
-17 5 -18 0 -12 -78z"/>
<path d="M6917 967 c-7 -215 -5 -225 64 -259 55 -27 105 -23 140 11 33 34 36
57 14 149 -30 125 -94 225 -172 269 l-40 23 -6 -193z"/>
<path d="M2422 1114 c-20 -40 -22 -60 -22 -212 l0 -167 35 -52 c43 -64 65 -72
111 -41 l34 23 0 211 0 212 -68 35 -68 36 -22 -45z"/>
<path d="M4764 1106 c-24 -54 -25 -62 -22 -215 l3 -159 31 -44 c17 -23 43 -50
57 -57 23 -14 28 -13 61 13 l36 27 0 207 0 207 -70 38 -70 38 -26 -55z"/>
</g>
</svg>
